<svg width="32" height="32" viewBox="0 0 32 32" fill="none" xmlns="http://www.w3.org/2000/svg">
<g id="Bildmarke">
<path id="Vector" d="M30.0084 3.38824L22.1045 0.228223C21.3476 -0.0760744 20.5206 -0.0760744 19.7637 0.228223L11.3526 3.5911C11.259 3.63011 11.1576 3.64572 11.0561 3.64572C10.9547 3.64572 10.8533 3.63011 10.7596 3.5911L2.96495 0.477903C1.85699 0.0331606 0.600793 0.571533 0.15605 1.67949C0.046815 1.93697 0 2.21006 0 2.48315V21.4276C0 22.7228 0.78025 23.8698 1.98184 24.3458L9.88577 27.5058C10.2603 27.654 10.6582 27.732 11.0561 27.732C11.4541 27.732 11.852 27.654 12.2265 27.5058C12.8273 27.2639 13.116 26.5851 12.8741 25.9843C12.6322 25.3835 11.9534 25.0948 11.3526 25.3367C11.1576 25.4147 10.9469 25.4147 10.7518 25.3367L2.84791 22.1767C2.53581 22.0518 2.34075 21.7553 2.34075 21.4276L2.32515 2.74843L9.87796 5.768V15.014C9.87796 15.6616 10.4007 16.1843 11.0483 16.1843C11.6959 16.1843 12.2187 15.6616 12.2187 15.014V5.768L19.7637 2.74843V10.0672C19.7637 10.7148 20.2865 11.2375 20.9341 11.2375C21.5817 11.2375 22.1045 10.7148 22.1045 10.0672V2.74843L29.1423 5.56513C29.4466 5.68997 29.6495 5.97867 29.6495 6.31417V15.014C29.6495 15.6616 30.1723 16.1843 30.8199 16.1843C31.4675 16.1843 31.9902 15.6616 31.9902 15.014V6.31417C31.9902 5.01896 31.21 3.87199 30.0084 3.38824Z" fill="#FF8800"/>
<path id="Vector_2" d="M28.4011 26.7489C29.4076 25.3991 30.0084 23.7371 30.0084 21.9269C30.0084 17.4639 26.3803 13.8358 21.9172 13.8358C17.4542 13.8358 13.826 17.4639 13.826 21.9269C13.826 26.39 17.4542 30.0181 21.9172 30.0181C23.7274 30.0181 25.3893 29.4173 26.7392 28.4108L29.985 31.6567C30.2113 31.8829 30.5156 32 30.8121 32C31.1086 32 31.4129 31.8829 31.6391 31.6567C32.0995 31.1963 32.0995 30.4551 31.6391 30.0025L28.3933 26.7567L28.4011 26.7489ZM16.1746 21.9269C16.1746 18.7591 18.7494 16.1765 21.925 16.1765C25.1006 16.1765 27.6755 18.7513 27.6755 21.9269C27.6755 25.1026 25.1006 27.6774 21.925 27.6774C18.7494 27.6774 16.1746 25.1026 16.1746 21.9269Z" fill="#FF8800"/>
</g>
</svg>
