<svg width="54" height="26" viewBox="0 0 54 26" fill="none" xmlns="http://www.w3.org/2000/svg">
<g id="wapi">
<path id="Vector" d="M50.9286 20.4075V6.10861H53.3958V20.4075H50.9286ZM50.9286 3.82716V0.643738H53.3958V3.82716H50.9286Z" fill="#171717"/>
<path id="Vector_2" d="M35.0551 25.7132V6.10862H37.4692V9.18593L37.1509 8.57578C37.6815 7.72686 38.4066 7.05481 39.3262 6.55961C40.2459 6.04673 41.2982 5.79028 42.4831 5.79028C43.8272 5.79028 45.0299 6.11747 46.091 6.77184C47.1698 7.42621 48.0187 8.31933 48.6377 9.45122C49.2567 10.5654 49.5662 11.8388 49.5662 13.2713C49.5662 14.6685 49.2567 15.933 48.6377 17.0649C48.0187 18.1968 47.1698 19.0899 46.091 19.7443C45.0299 20.3986 43.8184 20.7258 42.4566 20.7258C41.307 20.7258 40.2547 20.4694 39.2997 19.9565C38.3624 19.4436 37.6372 18.7185 37.1244 17.7812L37.5223 17.3567V25.7132H35.0551ZM42.2709 18.3383C43.1729 18.3383 43.9776 18.1172 44.685 17.6751C45.3924 17.2329 45.9407 16.6316 46.3298 15.8711C46.7365 15.0929 46.9399 14.2263 46.9399 13.2713C46.9399 12.2809 46.7365 11.4143 46.3298 10.6715C45.9407 9.91104 45.3924 9.30973 44.685 8.86759C43.9776 8.40776 43.1729 8.17785 42.2709 8.17785C41.3689 8.17785 40.5554 8.39892 39.8303 8.84106C39.1228 9.2832 38.5569 9.89336 38.1325 10.6715C37.7257 11.432 37.5223 12.2986 37.5223 13.2713C37.5223 14.2263 37.7257 15.0929 38.1325 15.8711C38.5569 16.6316 39.1228 17.2329 39.8303 17.6751C40.5554 18.1172 41.3689 18.3383 42.2709 18.3383Z" fill="#171717"/>
<path id="Vector_3" d="M25.8602 20.7258C24.9228 20.7258 24.0916 20.5578 23.3665 20.2218C22.6591 19.8681 22.102 19.3906 21.6952 18.7892C21.2884 18.1702 21.085 17.4628 21.085 16.667C21.085 15.9065 21.2442 15.2256 21.5625 14.6243C21.8986 14.0053 22.4115 13.4835 23.1012 13.0591C23.8086 12.6346 24.6929 12.334 25.754 12.1571L31.0597 11.2817V13.3509L26.3111 14.1468C25.3915 14.3059 24.7194 14.5977 24.295 15.0222C23.8882 15.4467 23.6848 15.9684 23.6848 16.5874C23.6848 17.171 23.9147 17.6574 24.3746 18.0464C24.8521 18.4355 25.4445 18.6301 26.152 18.6301C27.0539 18.6301 27.8321 18.4444 28.4865 18.073C29.1585 17.6839 29.6803 17.1622 30.0517 16.5078C30.4407 15.8534 30.6353 15.1283 30.6353 14.3325V10.6981C30.6353 9.91989 30.3435 9.29205 29.7598 8.81453C29.1939 8.31933 28.4423 8.07173 27.5049 8.07173C26.6914 8.07173 25.9663 8.28396 25.3296 8.70842C24.7106 9.11519 24.2508 9.66344 23.9501 10.3532L21.8013 9.23899C22.0666 8.58462 22.491 8.00099 23.0747 7.48811C23.6583 6.95754 24.3392 6.54192 25.1174 6.24127C25.8955 5.94061 26.7091 5.79028 27.558 5.79028C28.6545 5.79028 29.6184 6.00251 30.4496 6.42697C31.2808 6.83374 31.9263 7.40852 32.3862 8.15132C32.8637 8.87643 33.1024 9.72534 33.1024 10.6981V20.4075H30.6883V17.7016L31.1393 17.8608C30.8387 18.4267 30.4319 18.9219 29.919 19.3463C29.4061 19.7708 28.8048 20.1068 28.1151 20.3544C27.4253 20.602 26.6737 20.7258 25.8602 20.7258Z" fill="#171717"/>
<path id="Vector_4" d="M5.43183 20.4074L0.524055 6.10858H3.25649L7.15618 18.0729L6.20115 18.0464L10.0213 6.10858H12.3558L16.1759 18.0464L15.2208 18.0729L19.1471 6.10858H21.853L16.9452 20.4074H14.5842L10.8171 8.46962H11.5599L7.79286 20.4074H5.43183Z" fill="#171717"/>
</g>
</svg>
